<?xml version="1.0" standalone="no"?>
<!DOCTYPE svg PUBLIC "-//W3C//DTD SVG 20010904//EN"
 "http://www.w3.org/TR/2001/REC-SVG-20010904/DTD/svg10.dtd">
<svg version="1.0" xmlns="http://www.w3.org/2000/svg"
 width="240.000000pt" height="181.000000pt" viewBox="0 0 240.000000 181.000000"
 preserveAspectRatio="xMidYMid meet">
<metadata>
Created by potrace 1.12, written by Peter Selinger 2001-2015
</metadata>
<g transform="translate(0.000000,181.000000) scale(0.100000,-0.100000)"
fill="#fd0000" stroke="none">
<path d="M1216 1779 c-33 -11 -65 -24 -73 -30 -13 -12 -18 -19 -62 -100 -13
-24 -25 -46 -27 -48 -6 -6 -84 31 -84 40 0 4 -19 10 -42 14 -24 4 -59 11 -78
17 -45 13 -115 -5 -133 -32 -6 -11 -17 -20 -23 -20 -7 0 -14 -7 -18 -15 -3 -8
-9 -14 -13 -13 -13 5 -83 -53 -77 -63 3 -5 -7 -14 -21 -19 -15 -6 -41 -24 -59
-40 -17 -16 -52 -49 -78 -73 -27 -24 -48 -48 -48 -52 0 -14 -95 -100 -111
-100 -7 0 -23 -19 -34 -42 -11 -23 -35 -55 -52 -71 -18 -16 -33 -36 -33 -46 0
-9 -7 -19 -15 -22 -8 -3 -17 -16 -21 -27 -3 -12 -12 -35 -19 -52 -31 -75 -35
-87 -35 -102 0 -9 -7 -25 -16 -34 -14 -15 -15 -24 -5 -46 13 -34 23 -123 13
-123 -14 0 -32 -64 -22 -74 15 -15 12 -29 -5 -22 -19 7 -19 -7 0 -44 12 -23
23 -30 44 -30 40 0 61 9 61 27 0 12 8 13 41 8 36 -6 41 -5 46 14 4 16 11 19
29 15 38 -10 57 2 44 26 -6 12 -19 24 -28 27 -26 9 -52 34 -52 50 0 9 19 1 56
-22 70 -45 102 -44 56 2 -49 49 -39 59 22 21 42 -27 43 -40 11 -93 -14 -22
-31 -55 -40 -72 -11 -24 -22 -33 -39 -33 -27 0 -161 -68 -160 -81 2 -21 5 -25
24 -37 14 -9 26 -9 39 -3 16 9 19 6 24 -18 5 -23 10 -28 26 -24 15 4 20 -1 23
-19 2 -17 11 -24 36 -28 18 -3 33 -9 34 -15 1 -5 13 -19 26 -29 20 -16 26 -17
34 -5 7 10 11 11 14 2 3 -7 21 -17 40 -23 27 -9 33 -16 29 -30 -8 -27 34 -50
84 -45 24 2 53 -3 71 -12 17 -8 37 -12 45 -9 8 3 17 1 21 -5 4 -7 10 -6 19 1
9 8 14 6 19 -5 4 -11 13 -14 25 -10 13 4 20 0 24 -16 3 -12 10 -18 17 -14 6 4
21 -2 33 -12 30 -27 52 -34 66 -20 8 8 14 8 19 2 11 -16 42 -14 42 2 0 11 5 9
18 -6 15 -19 20 -20 50 -9 17 7 32 16 32 21 0 5 9 5 21 2 20 -7 21 -5 14 46
-4 30 -13 77 -21 104 -17 61 -29 237 -15 214 11 -17 27 -105 42 -224 5 -44 14
-91 20 -104 9 -23 10 -23 29 -6 15 14 20 15 20 4 0 -9 7 -6 22 8 l21 22 -26
118 c-37 166 -43 208 -29 199 7 -4 12 -17 12 -29 0 -26 37 -196 54 -246 15
-46 36 -52 36 -12 0 37 17 41 26 5 7 -28 40 -30 38 -1 -2 20 7 22 24 5 21 -21
27 23 8 71 -10 25 -20 57 -22 71 -5 24 -5 24 10 6 9 -11 16 -27 16 -35 0 -9
10 -34 23 -55 18 -31 28 -39 55 -41 17 -2 32 2 32 7 0 6 7 7 15 4 29 -11 26
21 -10 95 -19 40 -35 79 -35 85 0 6 -11 45 -24 85 -13 41 -29 94 -36 117 -11
43 -12 43 -31 26 -23 -21 -22 -22 -37 40 -13 51 -10 68 10 48 25 -25 41 -14
35 23 -8 48 7 44 22 -5 9 -29 17 -40 31 -40 22 0 27 -15 9 -26 -20 -12 11
-176 46 -244 13 -25 30 -69 38 -98 26 -88 45 -112 88 -112 33 0 37 2 31 22 -3
14 -2 19 6 14 7 -4 12 -14 12 -22 0 -20 17 -18 42 6 14 13 36 20 59 20 21 0
45 7 53 15 9 9 21 15 28 14 7 -1 34 8 61 20 26 12 51 20 55 17 5 -3 16 8 26
25 9 16 23 29 30 29 8 0 17 11 20 25 4 14 12 25 20 25 27 0 46 34 39 73 -6 37
3 47 24 26 8 -8 13 -6 17 8 4 11 18 26 31 33 14 7 25 18 25 23 0 5 10 17 23
27 20 16 21 22 10 49 -11 30 -10 32 23 47 35 17 42 28 24 39 -5 3 -10 11 -10
16 0 6 4 8 9 5 5 -3 12 5 15 19 4 14 11 25 16 25 20 0 9 35 -17 58 -20 16 -22
22 -9 18 15 -5 17 -2 12 19 -4 14 -2 25 4 25 5 0 10 -6 11 -12 0 -7 5 0 11 16
8 22 7 30 -3 37 -11 7 -10 11 6 23 11 8 23 12 27 10 5 -3 8 -1 8 4 0 5 9 12
20 15 13 3 18 10 14 21 -3 9 -1 16 6 16 7 0 9 8 5 19 -4 14 1 23 17 32 22 12
22 12 2 19 -11 4 -50 8 -87 9 -55 1 -67 -2 -67 -15 0 -12 -5 -14 -17 -9 -20 8
-32 9 -82 7 l-34 -2 37 -25 c20 -14 40 -25 44 -25 14 0 67 -48 60 -55 -14 -14
-55 5 -122 55 -70 52 -81 57 -92 39 -8 -14 40 -63 93 -95 36 -21 63 -50 63
-68 0 -9 -107 60 -150 97 -34 29 -49 35 -69 30 -37 -8 -41 -12 -41 -35 0 -11
-8 -22 -19 -25 -17 -4 -15 -10 21 -58 29 -39 53 -59 91 -75 60 -26 84 -44 103
-82 17 -33 2 -38 -24 -7 -9 12 -38 31 -64 43 -26 11 -80 51 -120 88 -40 36
-86 77 -102 90 -32 27 -29 42 10 52 32 8 103 54 126 81 26 32 56 115 63 178 4
38 11 57 18 54 12 -4 16 -108 6 -171 -7 -46 14 -40 38 12 28 58 81 132 94 132
18 0 -3 -43 -44 -92 -26 -31 -37 -53 -33 -64 6 -16 8 -15 26 1 11 10 22 26 25
36 9 28 26 23 19 -6 -6 -26 9 -35 22 -13 5 8 11 6 20 -6 8 -12 19 -16 33 -11
12 3 21 2 21 -3 0 -14 41 -7 50 9 4 8 10 30 14 49 5 32 3 36 -25 49 -18 8 -34
22 -36 32 -3 11 -11 19 -18 19 -16 0 -34 21 -38 46 -5 29 -37 75 -80 114 -21
19 -50 46 -65 60 -15 13 -31 23 -36 22 -5 -2 -18 5 -30 15 -33 28 -64 43 -78
38 -8 -3 -23 4 -35 15 -12 11 -26 20 -32 20 -5 0 -11 6 -13 12 -3 7 -22 13
-46 13 -30 0 -42 4 -42 14 0 11 -3 12 -11 4 -12 -12 -49 -6 -49 8 0 4 -21 11
-47 15 -27 4 -53 14 -60 23 -7 9 -13 12 -13 7 0 -5 -8 -2 -17 6 -16 14 -87 34
-105 30 -3 -1 -28 5 -55 14 -74 23 -103 23 -167 3z m333 -145 c6 4 20 2 31 -4
23 -12 28 -42 5 -34 -8 4 -15 1 -15 -5 0 -6 -4 -11 -10 -11 -5 0 -10 8 -10 18
0 13 -2 14 -9 3 -7 -11 -11 -10 -20 7 -6 11 -11 29 -11 39 1 17 1 17 15 -1 7
-10 18 -15 24 -12z m112 -50 c4 -16 7 -55 8 -87 1 -80 -22 -72 -30 10 -3 32
-9 65 -13 72 -11 16 1 44 17 39 6 -3 15 -18 18 -34z m-58 -36 c3 -12 2 -29 -3
-37 -5 -9 -10 -14 -10 -11 -1 3 -3 20 -6 38 -4 36 10 44 19 10z m155 -52 c11
-25 7 -36 -14 -36 -8 0 -12 12 -12 30 1 36 11 38 26 6z m-944 -12 c9 -8 16
-23 16 -32 0 -13 -5 -11 -20 8 -29 37 -26 55 4 24z m585 -71 c3 -83 36 -301
47 -313 3 -3 91 -3 196 -2 156 3 190 2 186 -10 -5 -15 -66 -26 -151 -27 -32
-1 -71 -8 -88 -16 -16 -9 -34 -13 -39 -10 -5 3 -21 -10 -35 -29 -15 -19 -42
-40 -60 -46 -30 -10 -66 -43 -132 -123 -13 -15 -29 -27 -36 -27 -7 0 -23 -8
-37 -17 -15 -11 -39 -16 -65 -14 -60 4 -175 31 -215 51 -19 9 -56 22 -81 28
-47 12 -58 10 -148 -23 -24 -9 -45 -14 -47 -12 -11 10 40 56 68 62 18 4 44 16
58 26 14 9 51 23 82 29 47 9 60 17 77 43 17 26 21 29 27 14 9 -25 54 -22 61 4
4 16 11 19 29 15 17 -5 28 1 43 20 24 31 26 51 7 73 -7 9 -21 42 -30 73 -41
144 -49 169 -57 174 -12 7 -11 24 0 24 14 0 51 -82 51 -112 0 -14 14 -56 30
-93 29 -64 32 -67 58 -60 15 4 28 8 30 10 2 2 -5 32 -16 67 -20 62 -46 172
-56 236 -6 33 9 45 18 15 17 -61 46 -199 46 -224 0 -24 6 -32 30 -40 33 -12
38 -24 15 -33 -40 -15 12 -65 54 -51 15 5 21 2 21 -9 0 -24 28 -19 56 9 15 15
23 32 20 43 -3 9 -8 38 -11 64 -2 26 -12 73 -20 104 -16 61 -19 121 -9 148 12
32 21 15 23 -41z m76 -34 c6 -81 3 -111 -9 -98 -10 10 -18 189 -9 189 6 0 14
-41 18 -91z m-465 54 c25 -56 51 -146 45 -161 -8 -22 -13 -13 -39 74 -13 43
-27 87 -31 97 -12 29 11 19 25 -10z m-259 -25 c3 -14 30 -71 58 -127 28 -55
49 -101 46 -101 -12 0 -54 56 -55 71 0 9 -7 22 -15 29 -8 7 -15 18 -15 24 0 6
-9 22 -19 36 -16 20 -22 22 -34 12 -11 -9 -17 -10 -22 -2 -4 6 1 17 10 24 10
7 18 25 18 40 0 33 18 29 28 -6z m508 -43 c13 -27 20 -53 16 -63 -6 -14 -10
-10 -22 18 -9 19 -22 47 -29 62 -8 14 -14 32 -14 38 0 22 24 -6 49 -55z m609
-26 c3 -89 -7 -160 -23 -166 -6 -2 -10 43 -9 115 1 144 1 145 17 140 8 -3 13
-32 15 -89z m-1023 65 c0 -22 39 -110 55 -124 10 -8 20 -26 23 -40 3 -14 9
-35 12 -47 13 -41 -11 -24 -29 21 -10 25 -29 54 -41 66 -14 13 -21 29 -18 41
3 10 -2 30 -11 44 -19 29 -21 58 -3 53 6 -3 12 -9 12 -14z m729 -54 c1 -32 3
-35 29 -32 15 1 27 -2 27 -8 0 -5 7 -10 15 -10 17 0 20 16 5 25 -15 9 -12 35
4 35 20 0 40 -61 24 -72 -10 -6 -10 -8 0 -8 6 0 12 -5 12 -11 0 -11 -17 -10
-82 7 -26 6 -28 4 -28 -24 0 -28 -20 -48 -34 -35 -3 4 -6 44 -6 90 0 74 2 84
17 81 12 -2 17 -13 17 -38z m-892 -2 c22 -44 31 -88 18 -88 -6 0 -13 8 -16 18
-3 9 -10 26 -14 37 -28 65 -18 91 12 33z m631 -8 c6 -25 -9 -36 -16 -12 -2 9
-8 26 -13 37 -7 17 -6 18 8 7 9 -7 18 -22 21 -32z m658 -54 c-21 -20 -21 -20
-21 0 0 11 8 31 18 44 l17 25 3 -24 c2 -14 -5 -32 -17 -45z m-975 39 c11 -27
-2 -37 -14 -11 -7 16 -8 26 -1 26 5 0 12 -7 15 -15z m-48 -7 c5 -7 20 -44 33
-83 13 -38 39 -92 57 -120 17 -27 32 -53 32 -57 0 -13 -17 -9 -29 6 -17 20
-71 134 -71 149 0 32 -22 87 -35 87 -8 0 -15 7 -15 15 0 18 14 20 28 3z m389
-98 c4 -34 2 -50 -6 -50 -6 0 -11 8 -11 19 0 10 -3 40 -6 67 -4 38 -3 45 6 32
6 -10 14 -40 17 -68z m-734 -9 c31 -43 57 -83 57 -89 0 -6 9 -21 20 -34 68
-81 84 -109 63 -108 -12 1 -151 188 -177 237 -8 16 -22 35 -30 42 -19 16 -21
31 -3 31 6 -1 38 -36 70 -79z m425 39 c8 -16 12 -38 10 -47 -4 -16 -5 -16 -15
2 -15 29 -25 75 -16 75 5 0 14 -13 21 -30z m-531 -48 c19 -41 30 -51 75 -70
36 -15 49 -25 42 -32 -7 -7 -19 -8 -36 -1 -14 5 -28 7 -31 4 -7 -7 -87 117
-87 135 0 25 16 10 37 -36z m235 1 c12 -27 44 -74 70 -105 46 -54 58 -78 39
-78 -14 0 -114 112 -133 150 -20 38 -24 80 -8 80 6 0 20 -21 32 -47z m178 -31
c0 -10 16 -48 35 -85 24 -45 31 -67 22 -67 -24 0 -52 44 -76 119 -6 18 -8 37
-5 42 9 15 24 10 24 -9z m-449 -87 c30 -36 58 -75 63 -85 5 -11 16 -22 25 -25
9 -3 37 -25 63 -49 46 -43 47 -44 24 -50 -14 -3 -30 -3 -38 0 -15 6 -111 118
-117 137 -5 15 -60 97 -78 115 -15 15 -16 22 -5 22 5 0 33 -29 63 -65z m0
-162 c32 -31 59 -62 59 -70 0 -22 -28 -14 -47 14 -10 15 -35 43 -55 63 -21 20
-38 40 -38 43 0 18 27 2 81 -50z m1239 -5 c0 -6 -7 -5 -15 2 -8 7 -15 17 -15
22 0 6 7 5 15 -2 8 -7 15 -17 15 -22z m352 -20 c40 -35 50 -85 11 -60 -16 10
-73 83 -73 94 0 11 26 -4 62 -34z m68 -11 c0 -6 -11 0 -25 13 -14 13 -25 28
-25 33 0 6 11 0 25 -13 14 -13 25 -28 25 -33z m-254 -101 c35 -41 68 -77 74
-81 11 -7 40 -70 40 -87 0 -5 -31 28 -69 74 -38 46 -99 112 -136 148 -36 36
-63 68 -60 72 12 12 85 -49 151 -126z m25 72 c8 -7 25 -25 38 -40 19 -21 21
-28 9 -28 -17 0 -89 66 -80 74 8 9 17 7 33 -6z m-1388 -53 c4 -8 14 -15 21
-15 7 0 21 -9 30 -19 17 -18 15 -20 -39 -57 -31 -20 -61 -47 -67 -59 -7 -15
-16 -21 -29 -18 -23 6 -24 15 -4 53 13 26 14 30 1 30 -8 0 -25 13 -38 28 -13
15 -40 39 -60 52 -37 25 -48 40 -28 40 22 0 86 -39 115 -70 32 -34 73 -62 60
-40 -4 6 1 20 11 32 18 19 18 20 0 33 -10 8 -24 11 -31 9 -7 -3 -16 -1 -20 5
-3 6 -15 11 -26 11 -27 0 -24 28 4 32 26 4 87 -25 100 -47z m1204 18 c10 -16
38 -53 64 -83 46 -54 93 -143 81 -154 -11 -12 -20 -5 -26 19 -4 14 -17 30 -30
35 -15 5 -25 20 -29 38 -6 29 -93 130 -103 119 -11 -10 9 -58 22 -53 15 6 24
-5 30 -37 6 -40 36 -142 44 -152 7 -9 30 -105 30 -125 0 -6 -4 -10 -9 -10 -13
0 -48 78 -57 125 -4 22 -24 65 -45 95 -22 31 -39 60 -39 64 0 5 -10 28 -22 52
-12 24 -18 47 -13 51 4 5 10 2 12 -5 4 -9 10 -6 21 10 9 13 16 26 14 31 -6 20
40 3 55 -20z m-132 -132 c42 -70 65 -135 52 -147 -10 -11 -27 7 -27 27 0 11
-16 41 -35 66 -19 25 -40 62 -45 82 -6 20 -17 45 -25 55 -24 32 -17 42 10 16
14 -13 46 -58 70 -99z m-886 51 c-7 -10 -25 -30 -40 -47 -31 -33 -89 -170 -89
-207 0 -13 -7 -33 -16 -44 -14 -18 -15 -15 -11 36 8 88 37 154 97 224 30 35
59 61 63 59 4 -3 2 -12 -4 -21z m1298 -8 c-12 -12 -37 5 -30 21 5 15 7 15 21
1 9 -9 13 -18 9 -22z m-747 -22 c0 -10 7 -45 16 -77 9 -33 20 -82 25 -110 4
-27 11 -69 14 -92 12 -67 -10 -52 -28 20 -9 34 -24 87 -32 117 -17 62 -21 175
-5 165 6 -3 10 -14 10 -23z m-474 -17 c-6 -19 -14 -35 -18 -35 -11 0 -10 15 4
45 17 37 27 30 14 -10z m-196 2 c0 -27 -34 -64 -44 -49 -11 18 16 72 35 72 5
0 9 -11 9 -23z m1466 5 c31 -26 68 -82 53 -82 -14 0 -89 76 -89 90 0 15 12 12
36 -8z m-567 -2 c20 -10 47 -67 37 -77 -12 -12 -61 12 -61 29 0 10 -6 23 -13
30 -26 26 -1 39 37 18z m-715 -87 c-10 -46 -13 -53 -24 -53 -13 0 -13 21 0 54
13 35 32 34 24 -1z m114 -35 c-3 -29 -1 -62 5 -75 7 -17 5 -27 -12 -48 -17
-23 -22 -25 -27 -11 -14 37 11 186 32 186 4 0 4 -24 2 -52z m128 -121 c1 -137
0 -160 -8 -112 -14 97 -24 237 -15 242 4 2 7 13 7 24 0 10 3 19 8 19 4 0 8
-78 8 -173z m192 132 c2 -13 9 -44 17 -69 18 -55 30 -220 17 -220 -5 0 -12 28
-16 63 -3 34 -15 96 -26 137 -11 41 -20 86 -20 98 0 31 24 23 28 -9z m-547 -6
c0 -5 2 -31 2 -60 2 -37 -1 -49 -9 -42 -12 10 -26 88 -18 101 6 10 24 10 25 1z
m1354 -3 c3 -5 1 -10 -4 -10 -6 0 -11 5 -11 10 0 6 2 10 4 10 3 0 8 -4 11 -10z
m-486 -80 c4 -19 14 -59 21 -88 13 -59 7 -81 -11 -36 -18 46 -49 162 -49 181
1 16 2 16 16 -2 8 -11 18 -35 23 -55z m377 23 c3 -16 7 -34 10 -40 4 -14 -5
-16 -22 -5 -10 6 -18 42 -15 65 3 18 21 4 27 -20z m-1148 -20 c-3 -42 -21 -51
-26 -15 -4 29 4 52 18 52 7 0 10 -15 8 -37z m860 0 c19 -79 28 -143 21 -143
-10 0 -49 128 -49 159 0 35 19 24 28 -16z m62 6 c0 -5 -4 -9 -10 -9 -5 0 -10
7 -10 16 0 8 5 12 10 9 6 -3 10 -10 10 -16z m41 -65 c10 -28 5 -44 -10 -28 -5
5 -12 19 -16 32 -9 32 13 28 26 -4z m-1055 -9 c11 -27 -2 -37 -14 -11 -7 16
-8 26 -1 26 5 0 12 -7 15 -15z m114 -6 c0 -5 4 -8 9 -5 5 3 9 -9 8 -27 0 -19
12 -53 31 -85 35 -58 42 -87 14 -56 -29 31 -59 87 -67 121 -3 18 -11 35 -16
38 -14 9 -11 25 6 25 8 0 15 -5 15 -11z m70 -23 c0 -2 3 -12 7 -21 5 -15 3
-16 -15 -6 -25 13 -29 31 -7 31 8 0 15 -2 15 -4z m65 -53 c-4 -32 -1 -63 9
-92 19 -51 19 -51 7 -51 -18 0 -42 106 -34 153 8 55 25 45 18 -10z m825 16 c0
-6 -4 -7 -10 -4 -5 3 -10 11 -10 16 0 6 5 7 10 4 6 -3 10 -11 10 -16z m-1034
-44 c9 -31 14 -58 11 -62 -4 -3 -9 3 -13 13 -3 10 -10 28 -14 39 -17 39 -21
65 -12 65 6 0 18 -25 28 -55z m628 29 c3 -9 6 -23 6 -32 0 -21 -15 -5 -25 26
-7 25 9 31 19 6z m-324 -108 c0 -24 -12 -46 -21 -40 -15 9 -10 54 6 54 8 0 15
-6 15 -14z"/>
<path d="M1875 980 c-3 -6 1 -7 9 -4 18 7 21 14 7 14 -6 0 -13 -4 -16 -10z"/>
</g>
</svg>
